<svg width="477" height="429" viewBox="0 0 477 429" fill="none" xmlns="http://www.w3.org/2000/svg">
<mask id="mask0_2_125" style="mask-type:alpha" maskUnits="userSpaceOnUse" x="6" y="10" width="459" height="418">
<path d="M314.936 19.9668C264.55 6.87306 211.654 6.87304 161.267 19.9668L145.597 24.0389C60.7477 46.0886 2.95138 124.571 7.07373 212.142L7.8509 228.651C10.8716 292.82 51.9023 348.991 112.113 371.385C118.845 373.889 124.573 378.528 128.42 384.594L141.964 405.946C147.612 414.85 156.265 421.434 166.353 424.503L167.126 424.738C169.001 425.308 170.958 425.556 172.915 425.471C182.475 425.056 190.514 418.163 192.385 408.779L192.631 407.543C194.184 399.751 205.22 399.465 207.176 407.165L207.655 409.049C210.061 418.523 218.037 425.548 227.738 426.738L235.359 427.673C237.713 427.962 240.094 427.962 242.448 427.673L249.295 426.833C259.463 425.585 267.822 418.223 270.344 408.294L270.684 406.956C272.734 398.884 284.243 399.005 286.123 407.118L286.551 408.964C288.714 418.302 296.838 425.051 306.414 425.468C308.425 425.555 310.436 425.3 312.362 424.715L312.943 424.538C323.079 421.454 331.705 414.711 337.144 405.62L349.819 384.434C353.388 378.468 358.791 373.815 365.22 371.169C419.947 348.646 457.389 297.3 462.103 238.309L463.62 219.333C470.898 128.268 411.74 45.1231 323.322 22.1459L314.936 19.9668Z" fill="#FFF0D3"/>
</mask>
<g mask="url(#mask0_2_125)">
<g filter="url(#filter0_di_2_125)">
<path d="M314.936 19.9668C264.55 6.87306 211.654 6.87304 161.267 19.9668L145.597 24.0389C60.7477 46.0886 2.95138 124.571 7.07373 212.142L7.8509 228.651C10.8716 292.82 51.9023 348.991 112.113 371.385C118.845 373.889 124.573 378.528 128.42 384.594L141.964 405.946C147.612 414.85 156.265 421.434 166.353 424.503L167.126 424.738C169.001 425.308 170.958 425.556 172.915 425.471C182.475 425.056 190.514 418.163 192.385 408.779L192.631 407.543C194.184 399.751 205.22 399.465 207.176 407.165L207.655 409.049C210.061 418.523 218.037 425.548 227.738 426.738L235.359 427.673C237.713 427.962 240.094 427.962 242.448 427.673L249.295 426.833C259.463 425.585 267.822 418.223 270.344 408.294L270.684 406.956C272.734 398.884 284.243 399.005 286.123 407.118L286.551 408.964C288.714 418.302 296.838 425.051 306.414 425.468C308.425 425.555 310.436 425.3 312.362 424.715L312.943 424.538C323.079 421.454 331.705 414.711 337.144 405.62L349.819 384.434C353.388 378.468 358.791 373.815 365.22 371.169C419.947 348.646 457.389 297.3 462.103 238.309L463.62 219.333C470.898 128.268 411.74 45.1231 323.322 22.1459L314.936 19.9668Z" fill="url(#paint0_radial_2_125)"/>
</g>
<g filter="url(#filter1_f_2_125)">
<ellipse cx="166.85" cy="27.3134" rx="80.7527" ry="31.4698" fill="white"/>
</g>
<g filter="url(#filter2_f_2_125)">
<ellipse cx="166.849" cy="27.3137" rx="51.658" ry="20.1882" fill="white"/>
</g>
<g opacity="0.4" filter="url(#filter3_f_2_125)">
<path d="M86.5409 313.399C84.2883 283.194 105.903 256.441 135.907 252.297L208.865 242.22C222.945 240.276 237.226 240.276 251.306 242.22L323.976 252.257C354.109 256.419 375.774 283.348 373.387 313.673C369.568 362.187 329.085 399.607 280.421 399.607H179.417C130.668 399.607 90.1663 362.014 86.5409 313.399Z" fill="url(#paint1_linear_2_125)"/>
</g>
<g filter="url(#filter4_dd_2_125)">
<circle cx="122.613" cy="177.24" r="61.4552" fill="url(#paint2_linear_2_125)"/>
</g>
<g filter="url(#filter5_dd_2_125)">
<circle cx="353.59" cy="177.24" r="61.4552" fill="url(#paint3_linear_2_125)"/>
</g>
<g filter="url(#filter6_f_2_125)">
<ellipse rx="55.1478" ry="12.5969" transform="matrix(0.771824 -0.635836 0.664722 0.747091 344.26 396.751)" fill="white"/>
</g>
<g filter="url(#filter7_f_2_125)">
<ellipse rx="18.8145" ry="6.67382" transform="matrix(0.771824 -0.635836 0.664722 0.747091 333.296 413.038)" fill="white"/>
</g>
<g filter="url(#filter8_f_2_125)">
<ellipse cx="265.636" cy="424.421" rx="27.6765" ry="14.1939" transform="rotate(-40.5683 265.636 424.421)" fill="white"/>
</g>
<g filter="url(#filter9_f_2_125)">
<ellipse cx="188.485" cy="427.947" rx="39.7783" ry="14.1939" transform="rotate(-40.5683 188.485 427.947)" fill="white"/>
</g>
</g>
<defs>
<filter id="filter0_di_2_125" x="-12.7277" y="-4.90419" width="487.64" height="441.107" filterUnits="userSpaceOnUse" color-interpolation-filters="sRGB">
<feFlood flood-opacity="0" result="BackgroundImageFix"/>
<feColorMatrix in="SourceAlpha" type="matrix" values="0 0 0 0 0 0 0 0 0 0 0 0 0 0 0 0 0 0 127 0" result="hardAlpha"/>
<feOffset dx="7.71901" dy="5.34393"/>
<feGaussianBlur stdDeviation="1.48442"/>
<feColorMatrix type="matrix" values="0 0 0 0 1 0 0 0 0 0 0 0 0 0 0.12 0 0 0 1 0"/>
<feBlend mode="normal" in2="BackgroundImageFix" result="effect1_dropShadow_2_125"/>
<feBlend mode="normal" in="SourceGraphic" in2="effect1_dropShadow_2_125" result="shape"/>
<feColorMatrix in="SourceAlpha" type="matrix" values="0 0 0 0 0 0 0 0 0 0 0 0 0 0 0 0 0 0 127 0" result="hardAlpha"/>
<feOffset dx="-19.5944" dy="-15.0507"/>
<feGaussianBlur stdDeviation="15.0507"/>
<feComposite in2="hardAlpha" operator="arithmetic" k2="-1" k3="1"/>
<feColorMatrix type="matrix" values="0 0 0 0 0 0 0 0 0 1 0 0 0 0 0.94 0 0 0 0.31 0"/>
<feBlend mode="normal" in2="shape" result="effect2_innerShadow_2_125"/>
</filter>
<filter id="filter1_f_2_125" x="26.7199" y="-63.5334" width="280.259" height="181.694" filterUnits="userSpaceOnUse" color-interpolation-filters="sRGB">
<feFlood flood-opacity="0" result="BackgroundImageFix"/>
<feBlend mode="normal" in="SourceGraphic" in2="BackgroundImageFix" result="shape"/>
<feGaussianBlur stdDeviation="29.6885" result="effect1_foregroundBlur_2_125"/>
</filter>
<filter id="filter2_f_2_125" x="55.8144" y="-52.2515" width="222.07" height="159.13" filterUnits="userSpaceOnUse" color-interpolation-filters="sRGB">
<feFlood flood-opacity="0" result="BackgroundImageFix"/>
<feBlend mode="normal" in="SourceGraphic" in2="BackgroundImageFix" result="shape"/>
<feGaussianBlur stdDeviation="29.6885" result="effect1_foregroundBlur_2_125"/>
</filter>
<filter id="filter3_f_2_125" x="-2.68585" y="151.696" width="465.318" height="336.977" filterUnits="userSpaceOnUse" color-interpolation-filters="sRGB">
<feFlood flood-opacity="0" result="BackgroundImageFix"/>
<feBlend mode="normal" in="SourceGraphic" in2="BackgroundImageFix" result="shape"/>
<feGaussianBlur stdDeviation="44.5327" result="effect1_foregroundBlur_2_125"/>
</filter>
<filter id="filter4_dd_2_125" x="28.7632" y="96.7293" width="201.039" height="204.851" filterUnits="userSpaceOnUse" color-interpolation-filters="sRGB">
<feFlood flood-opacity="0" result="BackgroundImageFix"/>
<feColorMatrix in="SourceAlpha" type="matrix" values="0 0 0 0 0 0 0 0 0 0 0 0 0 0 0 0 0 0 127 0" result="hardAlpha"/>
<feOffset dx="6.66956" dy="23.8198"/>
<feGaussianBlur stdDeviation="19.5323"/>
<feColorMatrix type="matrix" values="0 0 0 0 0.758333 0 0 0 0 0.408363 0 0 0 0 0.0853125 0 0 0 0.77 0"/>
<feBlend mode="normal" in2="BackgroundImageFix" result="effect1_dropShadow_2_125"/>
<feColorMatrix in="SourceAlpha" type="matrix" values="0 0 0 0 0 0 0 0 0 0 0 0 0 0 0 0 0 0 127 0" result="hardAlpha"/>
<feOffset dx="-4.76397" dy="-4.76397"/>
<feGaussianBlur stdDeviation="7.14595"/>
<feColorMatrix type="matrix" values="0 0 0 0 1 0 0 0 0 1 0 0 0 0 1 0 0 0 0.59 0"/>
<feBlend mode="normal" in2="effect1_dropShadow_2_125" result="effect2_dropShadow_2_125"/>
<feBlend mode="normal" in="SourceGraphic" in2="effect2_dropShadow_2_125" result="shape"/>
</filter>
<filter id="filter5_dd_2_125" x="246.401" y="96.7294" width="201.039" height="204.851" filterUnits="userSpaceOnUse" color-interpolation-filters="sRGB">
<feFlood flood-opacity="0" result="BackgroundImageFix"/>
<feColorMatrix in="SourceAlpha" type="matrix" values="0 0 0 0 0 0 0 0 0 0 0 0 0 0 0 0 0 0 127 0" result="hardAlpha"/>
<feOffset dx="-6.66956" dy="23.8198"/>
<feGaussianBlur stdDeviation="19.5323"/>
<feColorMatrix type="matrix" values="0 0 0 0 0.758333 0 0 0 0 0.408363 0 0 0 0 0.0853125 0 0 0 0.77 0"/>
<feBlend mode="normal" in2="BackgroundImageFix" result="effect1_dropShadow_2_125"/>
<feColorMatrix in="SourceAlpha" type="matrix" values="0 0 0 0 0 0 0 0 0 0 0 0 0 0 0 0 0 0 127 0" result="hardAlpha"/>
<feOffset dx="4.76397" dy="-4.76397"/>
<feGaussianBlur stdDeviation="7.14595"/>
<feColorMatrix type="matrix" values="0 0 0 0 1 0 0 0 0 1 0 0 0 0 1 0 0 0 0.59 0"/>
<feBlend mode="normal" in2="effect1_dropShadow_2_125" result="effect2_dropShadow_2_125"/>
<feBlend mode="normal" in="SourceGraphic" in2="effect2_dropShadow_2_125" result="shape"/>
</filter>
<filter id="filter6_f_2_125" x="259.308" y="318.872" width="169.905" height="155.758" filterUnits="userSpaceOnUse" color-interpolation-filters="sRGB">
<feFlood flood-opacity="0" result="BackgroundImageFix"/>
<feBlend mode="normal" in="SourceGraphic" in2="BackgroundImageFix" result="shape"/>
<feGaussianBlur stdDeviation="20.7819" result="effect1_foregroundBlur_2_125"/>
</filter>
<filter id="filter7_f_2_125" x="294.357" y="376.324" width="77.8776" height="73.4292" filterUnits="userSpaceOnUse" color-interpolation-filters="sRGB">
<feFlood flood-opacity="0" result="BackgroundImageFix"/>
<feBlend mode="normal" in="SourceGraphic" in2="BackgroundImageFix" result="shape"/>
<feGaussianBlur stdDeviation="11.8754" result="effect1_foregroundBlur_2_125"/>
</filter>
<filter id="filter8_f_2_125" x="201.106" y="361.872" width="129.062" height="125.098" filterUnits="userSpaceOnUse" color-interpolation-filters="sRGB">
<feFlood flood-opacity="0" result="BackgroundImageFix"/>
<feBlend mode="normal" in="SourceGraphic" in2="BackgroundImageFix" result="shape"/>
<feGaussianBlur stdDeviation="20.7819" result="effect1_foregroundBlur_2_125"/>
</filter>
<filter id="filter9_f_2_125" x="115.317" y="358.348" width="146.335" height="139.196" filterUnits="userSpaceOnUse" color-interpolation-filters="sRGB">
<feFlood flood-opacity="0" result="BackgroundImageFix"/>
<feBlend mode="normal" in="SourceGraphic" in2="BackgroundImageFix" result="shape"/>
<feGaussianBlur stdDeviation="20.7819" result="effect1_foregroundBlur_2_125"/>
</filter>
<radialGradient id="paint0_radial_2_125" cx="0" cy="0" r="1" gradientUnits="userSpaceOnUse" gradientTransform="translate(238.102 60.5645) rotate(91.118) scale(380.382 307.409)">
<stop stop-color="#FFF0D3"/>
<stop offset="0.420971" stop-color="#FFED48" stop-opacity="0.990923"/>
<stop offset="0.829897" stop-color="#FFD643" stop-opacity="0.77"/>
<stop offset="1" stop-color="#C69F17"/>
</radialGradient>
<linearGradient id="paint1_linear_2_125" x1="230.086" y1="239.289" x2="230.086" y2="399.607" gradientUnits="userSpaceOnUse">
<stop stop-color="#9E4722"/>
<stop offset="1" stop-color="#BB391C" stop-opacity="0.87"/>
</linearGradient>
<linearGradient id="paint2_linear_2_125" x1="122.613" y1="124.6" x2="122.662" y2="249.59" gradientUnits="userSpaceOnUse">
<stop stop-color="#2E1E65"/>
<stop offset="1" stop-color="#11082F"/>
</linearGradient>
<linearGradient id="paint3_linear_2_125" x1="353.59" y1="124.6" x2="353.638" y2="249.59" gradientUnits="userSpaceOnUse">
<stop stop-color="#2E1E65"/>
<stop offset="1" stop-color="#11082F"/>
</linearGradient>
</defs>
</svg>
