<svg xmlns="http://www.w3.org/2000/svg" width="126" height="152" fill="none" xmlns:v="https://vecta.io/nano"><g filter="url(#A)"><path d="M117.012 117.012c6.185 6.185 9.278 9.278 8.762 13.616s-3.726 6.299-10.144 10.221a75.95 75.95 0 0 1-17.568 7.878 75.99 75.99 0 0 1-36.888 1.813c-12.258-2.439-23.726-7.862-33.387-15.791A76 76 0 0 1 40.174 8.974a76 76 0 0 1 17.994-6.852c7.312-1.765 10.967-2.647 14.4.055S76 9.253 76 18v13.257c0 4.588 0 6.882-.527 8.353-.581 1.622-.646 1.731-1.803 3.008-1.049 1.158-4.639 3.077-11.817 6.914a30.01 30.01 0 0 0-4.892 49.667c3.815 3.131 8.344 5.273 13.184 6.236s9.844.717 14.567-.716c7.789-2.363 11.684-3.544 13.245-3.467 1.721.085 1.844.116 3.402.852 1.413.668 3.035 2.29 6.279 5.534l9.374 9.374z" fill="url(#B)"/></g><defs><filter id="A" x="-30" y="-29.54" width="185.829" height="211.54" filterUnits="userSpaceOnUse" color-interpolation-filters="sRGB"><feFlood flood-opacity="0"/><feGaussianBlur stdDeviation="15"/><feComposite in2="SourceAlpha" operator="in"/><feBlend in="SourceGraphic"/></filter><linearGradient id="B" x1="76" y1="0" x2="76" y2="152" gradientUnits="userSpaceOnUse"><stop stop-color="#ff5b96" stop-opacity=".4"/><stop offset="1" stop-color="#ff5b79" stop-opacity=".25"/></linearGradient></defs></svg>