<svg width="784" height="760" viewBox="0 0 784 760" fill="none" xmlns="http://www.w3.org/2000/svg">
<g opacity="0.6" filter="url(#filter0_f_11_392)">
<ellipse cx="386.153" cy="652.429" rx="270.193" ry="47.9851" fill="url(#paint0_linear_11_392)"/>
</g>
<g filter="url(#filter1_i_11_392)">
<path d="M358.753 109.959C357.838 143.293 326.015 168.568 310.217 177.039C357.838 191.157 452.482 210.923 450.101 177.039C447.125 134.685 434.533 82.0279 397.445 38.7578C366.454 2.60161 299.686 -7.48849 256.874 23.1898C222.624 47.7324 221.846 99.8092 225.738 122.78L292.131 103.091C278.852 87.5227 284.576 53.1812 310.217 49.7471C335.859 46.3129 359.898 68.2914 358.753 109.959Z" fill="url(#paint1_radial_11_392)"/>
</g>
<g opacity="0.9" filter="url(#filter2_f_11_392)">
<path d="M419.881 158.724C421.407 143.08 419.881 101.946 401.565 62.5684C415.607 80.9601 438.929 125.94 419.881 158.724Z" fill="#E33F08"/>
</g>
<g opacity="0.4" filter="url(#filter3_f_11_392)">
<path d="M358.221 116.178C358.514 114.138 358.695 112.064 358.753 109.958C359.898 68.2906 335.859 46.3121 310.217 49.7462C284.575 53.1804 278.852 87.5218 292.131 103.09L263.324 111.632C261.061 91.0814 263.366 58.4921 286.178 44.7096C319.146 24.7916 358.066 45.1675 363.79 82.714C365.703 95.2655 362.939 106.628 358.221 116.178Z" fill="url(#paint2_linear_11_392)"/>
</g>
<g opacity="0.5" filter="url(#filter4_f_11_392)">
<path d="M408.778 53.3C417.79 76.6984 427.027 108.429 424.917 132.167C421.254 173.376 394.697 150.253 391.034 121.177C390.854 119.751 390.673 118.254 390.485 116.694C386.834 86.4466 380.353 32.7469 324.183 22.732C265.116 12.2007 247.945 72.6415 247.945 87.2938C247.945 101.946 255.729 103.32 258.247 92.7885C258.452 91.9331 258.681 90.839 258.95 89.5507C261.996 74.9782 270.239 35.5529 307.47 35.5529C347.993 35.5529 364.019 64.6285 372.032 87.2938C379.196 107.558 377.576 140.633 339.355 153.631C329.464 164.761 317.93 172.903 310.217 177.039C357.837 191.157 452.482 210.923 450.101 177.039C447.451 139.328 437.178 93.4485 408.778 53.3Z" fill="url(#paint3_linear_11_392)"/>
</g>
<g opacity="0.6" filter="url(#filter5_f_11_392)">
<path d="M378.214 80.1965C369.605 45.2141 338.988 32.4238 326.473 30.0581C417.363 40.5895 392.179 163.989 381.648 180.702C371.116 197.415 345.246 201.078 356.006 180.702C366.767 160.326 388.974 123.925 378.214 80.1965Z" fill="#E33F08"/>
</g>
<g filter="url(#filter6_d_11_392)">
<mask id="mask0_11_392" style="mask-type:alpha" maskUnits="userSpaceOnUse" x="67" y="171" width="651" height="471">
<path d="M505.721 641.792H283.405C248.872 641.792 231.605 641.792 218.543 639.833C120.419 625.113 53.5408 532.648 70.2801 434.849C72.5084 421.83 77.9139 405.432 88.7251 372.635L88.7252 372.634L88.7252 372.634C97.34 346.5 101.647 333.433 106.702 322.027C143.546 238.884 222.24 181.965 312.738 173.003C325.154 171.773 338.912 171.773 366.43 171.773H422.17C449.169 171.773 462.668 171.773 474.74 172.935C570.342 182.137 652.454 244.762 686.612 334.527C690.925 345.861 694.496 358.88 701.636 384.917L701.636 384.919C709.781 414.618 713.853 429.467 715.436 441.366C728.307 538.093 660.497 627.003 563.81 640.172C551.916 641.792 536.518 641.792 505.721 641.792Z" fill="#FF7F0A"/>
</mask>
<g mask="url(#mask0_11_392)">
<g filter="url(#filter7_i_11_392)">
<path d="M505.721 641.792H283.405C248.872 641.792 231.605 641.792 218.543 639.833C120.419 625.113 53.5408 532.648 70.2801 434.849C72.5084 421.83 77.9139 405.432 88.7251 372.635L88.7252 372.634L88.7252 372.634C97.34 346.5 101.647 333.433 106.702 322.027C143.546 238.884 222.24 181.965 312.738 173.003C325.154 171.773 338.912 171.773 366.43 171.773H422.17C449.169 171.773 462.668 171.773 474.74 172.935C570.342 182.137 652.454 244.762 686.612 334.527C690.925 345.861 694.496 358.88 701.636 384.917L701.636 384.919C709.781 414.618 713.853 429.467 715.436 441.366C728.307 538.093 660.497 627.003 563.81 640.172C551.916 641.792 536.518 641.792 505.721 641.792Z" fill="url(#paint4_radial_11_392)"/>
</g>
<g filter="url(#filter8_ddi_11_392)">
<path d="M225.737 270.227C198.57 339.319 181.619 420.84 200.901 514.966C210.459 561.626 215.238 584.957 242.799 610.522C245.694 613.208 251.109 617.626 254.321 619.924C284.898 641.792 317.435 641.792 385.639 641.792C450.713 641.792 487.553 641.792 518.13 619.924C521.342 617.626 526.757 613.208 529.652 610.522C557.213 584.957 561.992 561.626 571.55 514.966C590.833 420.84 573.881 339.319 546.714 270.227C541.061 255.85 538.235 248.662 531.212 237.5C512.648 207.998 472.591 180.706 438.342 174.225C425.385 171.773 409.268 171.773 385.639 171.773C358.881 171.773 347.066 171.773 334.109 174.225C299.86 180.706 259.803 207.998 241.239 237.5C234.216 248.662 231.39 255.85 225.737 270.227Z" fill="url(#paint5_radial_11_392)"/>
</g>
<g filter="url(#filter9_f_11_392)">
<ellipse cx="375.589" cy="275.959" rx="223.046" ry="80.4116" transform="rotate(1.0527 375.589 275.959)" fill="url(#paint6_linear_11_392)"/>
</g>
<g filter="url(#filter10_f_11_392)">
<ellipse cx="318.303" cy="298.038" rx="120.19" ry="41.6675" transform="rotate(-71.0877 318.303 298.038)" fill="url(#paint7_linear_11_392)"/>
</g>
<g opacity="0.8" filter="url(#filter11_f_11_392)">
<path d="M259.358 635.704C82.9941 603.101 81.4611 447.119 82.9941 379.653L3.20508 433.546L22.0601 645.285L259.358 737.262C319.678 721.293 407.841 663.152 259.358 635.704Z" fill="#FFE600"/>
</g>
<g opacity="0.5" filter="url(#filter12_f_11_392)">
<path d="M681.333 412.622H101.193C96.3088 435.821 99.7735 501.085 152.705 576.544C218.869 670.869 527.026 667.206 626.158 592.341C705.464 532.45 695.985 447.573 681.333 412.622Z" fill="url(#paint8_linear_11_392)"/>
</g>
<g filter="url(#filter13_f_11_392)">
<path d="M210.029 414.217C209.105 516.571 232.244 577.739 259.363 619.209C168.195 568.55 163.002 394.424 203.97 302.531C236.744 229.017 284.944 194.616 304.947 186.605C283.598 204.041 211.183 286.273 210.029 414.217Z" fill="#EC6830"/>
</g>
<g opacity="0.2" filter="url(#filter14_iif_11_392)">
<path d="M591.033 423.158C592.005 541.446 512.914 595.928 484.346 643.853C710.35 643.853 696.029 407.752 652.874 301.554C618.35 216.596 536.361 153.285 414.387 166.099C436.876 186.249 589.817 275.298 591.033 423.158Z" fill="#511F0E"/>
</g>
<g filter="url(#filter15_f_11_392)">
<path d="M568.284 417.513C569.14 517.724 547.697 577.61 522.565 618.212C628.925 567.289 619.347 396.703 581.381 306.735C551.008 234.76 498.858 202.511 480.321 194.668C500.106 211.739 567.215 292.249 568.284 417.513Z" fill="#67B108" fill-opacity="0.83"/>
</g>
</g>
</g>
<circle cx="259.694" cy="326.007" r="87.8312" fill="url(#paint9_linear_11_392)"/>
<path d="M333.009 277.622C319.912 267.122 303.286 260.841 285.194 260.841C242.945 260.841 208.696 295.091 208.696 337.339C208.696 375.399 236.491 406.968 272.889 412.853C268.586 413.502 264.179 413.838 259.694 413.838C211.187 413.838 171.863 374.514 171.863 326.006C171.863 277.499 211.187 238.175 259.694 238.175C290.323 238.175 317.291 253.853 333.009 277.622Z" fill="url(#paint10_linear_11_392)"/>
<circle r="87.8312" transform="matrix(-1 0 0 1 512.279 326.007)" fill="url(#paint11_linear_11_392)"/>
<path d="M438.966 277.621C452.063 267.121 468.688 260.84 486.78 260.84C529.029 260.84 563.279 295.09 563.279 337.338C563.279 375.398 535.484 406.967 499.085 412.852C503.389 413.501 507.795 413.837 512.28 413.837C560.788 413.837 600.111 374.513 600.111 326.006C600.111 277.498 560.788 238.174 512.28 238.174C481.651 238.174 454.684 253.852 438.966 277.621Z" fill="url(#paint12_linear_11_392)"/>
<path d="M364.749 376.245C372.736 360.378 376.729 352.445 382.642 350.973C384.748 350.448 386.952 350.448 389.059 350.973C394.972 352.445 398.965 360.378 406.951 376.245V376.245C413.65 389.555 417 396.21 415.212 401.478C414.569 403.373 413.506 405.098 412.103 406.524C408.201 410.489 400.751 410.489 385.85 410.489V410.489C370.95 410.489 363.499 410.489 359.598 406.524C358.194 405.098 357.131 403.373 356.488 401.478C354.701 396.21 358.05 389.555 364.749 376.245V376.245Z" fill="url(#paint13_linear_11_392)"/>
<path d="M370.916 386.604C374.963 378.165 376.986 373.946 379.48 372.219C383.4 369.505 388.593 369.505 392.513 372.219C395.007 373.946 397.03 378.165 401.077 386.604V386.604C404.275 393.274 405.874 396.608 405.825 399.32C405.749 403.574 403.318 407.435 399.515 409.344C397.092 410.56 393.393 410.56 385.996 410.56V410.56C378.6 410.56 374.901 410.56 372.478 409.344C368.675 407.435 366.244 403.574 366.167 399.32C366.119 396.608 367.718 393.274 370.916 386.604V386.604Z" fill="url(#paint14_linear_11_392)"/>
<path d="M280.454 533.732V463.446H491.081V533.732C509.607 529.599 547.871 509.918 566.064 463.446H606.697C571.715 589.273 465.668 604.704 385.767 604.704C305.866 604.704 199.82 589.273 164.838 463.446H205.471C223.664 509.918 261.928 529.599 280.454 533.732Z" fill="url(#paint15_linear_11_392)"/>
<path d="M280.454 533.618H298.352V463.446H280.454V533.618Z" fill="url(#paint16_linear_11_392)"/>
<path d="M473.183 463.446V533.618H491.081V463.446H473.183Z" fill="url(#paint17_linear_11_392)"/>
<path d="M569.15 463.446C533.893 582.725 452.089 582.725 385.767 582.725C319.446 582.725 227.797 562.482 202.384 463.446H164.838C199.82 589.273 305.866 604.704 385.767 604.704C465.668 604.704 571.715 589.273 606.697 463.446H569.15Z" fill="url(#paint18_linear_11_392)"/>
<g opacity="0.2" filter="url(#filter16_f_11_392)">
<ellipse cx="515.586" cy="327.689" rx="101.122" ry="97.6941" transform="rotate(-113.587 515.586 327.689)" fill="#8EA826"/>
</g>
<defs>
<filter id="filter0_f_11_392" x="57.0075" y="545.491" width="658.29" height="213.875" filterUnits="userSpaceOnUse" color-interpolation-filters="sRGB">
<feFlood flood-opacity="0" result="BackgroundImageFix"/>
<feBlend mode="normal" in="SourceGraphic" in2="BackgroundImageFix" result="shape"/>
<feGaussianBlur stdDeviation="29.4762" result="effect1_foregroundBlur_11_392"/>
</filter>
<filter id="filter1_i_11_392" x="209.03" y="-6.60631" width="241.115" height="202.354" filterUnits="userSpaceOnUse" color-interpolation-filters="sRGB">
<feFlood flood-opacity="0" result="BackgroundImageFix"/>
<feBlend mode="normal" in="SourceGraphic" in2="BackgroundImageFix" result="shape"/>
<feColorMatrix in="SourceAlpha" type="matrix" values="0 0 0 0 0 0 0 0 0 0 0 0 0 0 0 0 0 0 127 0" result="hardAlpha"/>
<feOffset dx="-15.1102" dy="-11.6063"/>
<feGaussianBlur stdDeviation="21.0627"/>
<feComposite in2="hardAlpha" operator="arithmetic" k2="-1" k3="1"/>
<feColorMatrix type="matrix" values="0 0 0 0 0.68 0 0 0 0 1 0 0 0 0 0 0 0 0 0.31 0"/>
<feBlend mode="normal" in2="shape" result="effect1_innerShadow_11_392"/>
</filter>
<filter id="filter2_f_11_392" x="388.287" y="49.2897" width="52.0522" height="122.713" filterUnits="userSpaceOnUse" color-interpolation-filters="sRGB">
<feFlood flood-opacity="0" result="BackgroundImageFix"/>
<feBlend mode="normal" in="SourceGraphic" in2="BackgroundImageFix" result="shape"/>
<feGaussianBlur stdDeviation="6.63933" result="effect1_foregroundBlur_11_392"/>
</filter>
<filter id="filter3_f_11_392" x="241.575" y="15.8699" width="143.89" height="121.371" filterUnits="userSpaceOnUse" color-interpolation-filters="sRGB">
<feFlood flood-opacity="0" result="BackgroundImageFix"/>
<feBlend mode="normal" in="SourceGraphic" in2="BackgroundImageFix" result="shape"/>
<feGaussianBlur stdDeviation="10.5314" result="effect1_foregroundBlur_11_392"/>
</filter>
<filter id="filter4_f_11_392" x="226.882" y="0.444613" width="244.326" height="216.366" filterUnits="userSpaceOnUse" color-interpolation-filters="sRGB">
<feFlood flood-opacity="0" result="BackgroundImageFix"/>
<feBlend mode="normal" in="SourceGraphic" in2="BackgroundImageFix" result="shape"/>
<feGaussianBlur stdDeviation="10.5314" result="effect1_foregroundBlur_11_392"/>
</filter>
<filter id="filter5_f_11_392" x="307.241" y="10.8269" width="104.977" height="203.048" filterUnits="userSpaceOnUse" color-interpolation-filters="sRGB">
<feFlood flood-opacity="0" result="BackgroundImageFix"/>
<feBlend mode="normal" in="SourceGraphic" in2="BackgroundImageFix" result="shape"/>
<feGaussianBlur stdDeviation="9.61558" result="effect1_foregroundBlur_11_392"/>
</filter>
<filter id="filter6_d_11_392" x="1.31834" y="107.212" width="782.079" height="602.806" filterUnits="userSpaceOnUse" color-interpolation-filters="sRGB">
<feFlood flood-opacity="0" result="BackgroundImageFix"/>
<feColorMatrix in="SourceAlpha" type="matrix" values="0 0 0 0 0 0 0 0 0 0 0 0 0 0 0 0 0 0 127 0" result="hardAlpha"/>
<feOffset dy="1.83154"/>
<feGaussianBlur stdDeviation="33.1967"/>
<feColorMatrix type="matrix" values="0 0 0 0 1 0 0 0 0 0.54 0 0 0 0 0 0 0 0 0.5 0"/>
<feBlend mode="normal" in2="BackgroundImageFix" result="effect1_dropShadow_11_392"/>
<feBlend mode="normal" in="SourceGraphic" in2="effect1_dropShadow_11_392" result="shape"/>
</filter>
<filter id="filter7_i_11_392" x="26.0441" y="134.685" width="690.96" height="507.108" filterUnits="userSpaceOnUse" color-interpolation-filters="sRGB">
<feFlood flood-opacity="0" result="BackgroundImageFix"/>
<feBlend mode="normal" in="SourceGraphic" in2="BackgroundImageFix" result="shape"/>
<feColorMatrix in="SourceAlpha" type="matrix" values="0 0 0 0 0 0 0 0 0 0 0 0 0 0 0 0 0 0 127 0" result="hardAlpha"/>
<feOffset dx="-44.4148" dy="-37.0887"/>
<feGaussianBlur stdDeviation="20.8338"/>
<feComposite in2="hardAlpha" operator="arithmetic" k2="-1" k3="1"/>
<feColorMatrix type="matrix" values="0 0 0 0 0.0588235 0 0 0 0 0.847059 0 0 0 0 0.137255 0 0 0 0.81 0"/>
<feBlend mode="normal" in2="shape" result="effect1_innerShadow_11_392"/>
</filter>
<filter id="filter8_ddi_11_392" x="101.508" y="133.311" width="480.148" height="536.87" filterUnits="userSpaceOnUse" color-interpolation-filters="sRGB">
<feFlood flood-opacity="0" result="BackgroundImageFix"/>
<feColorMatrix in="SourceAlpha" type="matrix" values="0 0 0 0 0 0 0 0 0 0 0 0 0 0 0 0 0 0 127 0" result="hardAlpha"/>
<feOffset dx="-57.6935" dy="-5.03674"/>
<feGaussianBlur stdDeviation="16.7128"/>
<feColorMatrix type="matrix" values="0 0 0 0 1 0 0 0 0 0.54 0 0 0 0 0 0 0 0 1 0"/>
<feBlend mode="normal" in2="BackgroundImageFix" result="effect1_dropShadow_11_392"/>
<feColorMatrix in="SourceAlpha" type="matrix" values="0 0 0 0 0 0 0 0 0 0 0 0 0 0 0 0 0 0 127 0" result="hardAlpha"/>
<feOffset dy="1.83154"/>
<feGaussianBlur stdDeviation="0.91577"/>
<feColorMatrix type="matrix" values="0 0 0 0 0 0 0 0 0 0 0 0 0 0 0 0 0 0 0.25 0"/>
<feBlend mode="normal" in2="effect1_dropShadow_11_392" result="effect2_dropShadow_11_392"/>
<feBlend mode="normal" in="SourceGraphic" in2="effect2_dropShadow_11_392" result="shape"/>
<feColorMatrix in="SourceAlpha" type="matrix" values="0 0 0 0 0 0 0 0 0 0 0 0 0 0 0 0 0 0 127 0" result="hardAlpha"/>
<feOffset dx="-38.4623" dy="-15.1102"/>
<feGaussianBlur stdDeviation="11.6063"/>
<feComposite in2="hardAlpha" operator="arithmetic" k2="-1" k3="1"/>
<feColorMatrix type="matrix" values="0 0 0 0 0.933375 0 0 0 0 0.95 0 0 0 0 0.11875 0 0 0 0.75 0"/>
<feBlend mode="normal" in2="shape" result="effect3_innerShadow_11_392"/>
</filter>
<filter id="filter9_f_11_392" x="91.6408" y="134.521" width="567.895" height="282.876" filterUnits="userSpaceOnUse" color-interpolation-filters="sRGB">
<feFlood flood-opacity="0" result="BackgroundImageFix"/>
<feBlend mode="normal" in="SourceGraphic" in2="BackgroundImageFix" result="shape"/>
<feGaussianBlur stdDeviation="30.467" result="effect1_foregroundBlur_11_392"/>
</filter>
<filter id="filter10_f_11_392" x="201.95" y="122.592" width="232.707" height="350.892" filterUnits="userSpaceOnUse" color-interpolation-filters="sRGB">
<feFlood flood-opacity="0" result="BackgroundImageFix"/>
<feBlend mode="normal" in="SourceGraphic" in2="BackgroundImageFix" result="shape"/>
<feGaussianBlur stdDeviation="30.467" result="effect1_foregroundBlur_11_392"/>
</filter>
<filter id="filter11_f_11_392" x="-20.6049" y="355.843" width="385.302" height="405.228" filterUnits="userSpaceOnUse" color-interpolation-filters="sRGB">
<feFlood flood-opacity="0" result="BackgroundImageFix"/>
<feBlend mode="normal" in="SourceGraphic" in2="BackgroundImageFix" result="shape"/>
<feGaussianBlur stdDeviation="11.905" result="effect1_foregroundBlur_11_392"/>
</filter>
<filter id="filter12_f_11_392" x="30.91" y="343.939" width="729.018" height="372.714" filterUnits="userSpaceOnUse" color-interpolation-filters="sRGB">
<feFlood flood-opacity="0" result="BackgroundImageFix"/>
<feBlend mode="normal" in="SourceGraphic" in2="BackgroundImageFix" result="shape"/>
<feGaussianBlur stdDeviation="34.3414" result="effect1_foregroundBlur_11_392"/>
</filter>
<filter id="filter13_f_11_392" x="160.217" y="167.374" width="163.962" height="471.066" filterUnits="userSpaceOnUse" color-interpolation-filters="sRGB">
<feFlood flood-opacity="0" result="BackgroundImageFix"/>
<feBlend mode="normal" in="SourceGraphic" in2="BackgroundImageFix" result="shape"/>
<feGaussianBlur stdDeviation="9.61558" result="effect1_foregroundBlur_11_392"/>
</filter>
<filter id="filter14_iif_11_392" x="392.866" y="142.927" width="307.241" height="522.446" filterUnits="userSpaceOnUse" color-interpolation-filters="sRGB">
<feFlood flood-opacity="0" result="BackgroundImageFix"/>
<feBlend mode="normal" in="SourceGraphic" in2="BackgroundImageFix" result="shape"/>
<feColorMatrix in="SourceAlpha" type="matrix" values="0 0 0 0 0 0 0 0 0 0 0 0 0 0 0 0 0 0 127 0" result="hardAlpha"/>
<feOffset dy="1.83154"/>
<feGaussianBlur stdDeviation="0.91577"/>
<feComposite in2="hardAlpha" operator="arithmetic" k2="-1" k3="1"/>
<feColorMatrix type="matrix" values="0 0 0 0 0.425 0 0 0 0 0.189267 0 0 0 0 0.0566667 0 0 0 0.5 0"/>
<feBlend mode="normal" in2="shape" result="effect1_innerShadow_11_392"/>
<feColorMatrix in="SourceAlpha" type="matrix" values="0 0 0 0 0 0 0 0 0 0 0 0 0 0 0 0 0 0 127 0" result="hardAlpha"/>
<feOffset dx="31.1362" dy="9.61558"/>
<feGaussianBlur stdDeviation="0.91577"/>
<feComposite in2="hardAlpha" operator="arithmetic" k2="-1" k3="1"/>
<feColorMatrix type="matrix" values="0 0 0 0 0 0 0 0 0 0 0 0 0 0 0 0 0 0 0.25 0"/>
<feBlend mode="normal" in2="effect1_innerShadow_11_392" result="effect2_innerShadow_11_392"/>
<feGaussianBlur stdDeviation="10.7603" result="effect3_foregroundBlur_11_392"/>
</filter>
<filter id="filter15_f_11_392" x="461.09" y="175.437" width="165.87" height="462.006" filterUnits="userSpaceOnUse" color-interpolation-filters="sRGB">
<feFlood flood-opacity="0" result="BackgroundImageFix"/>
<feBlend mode="normal" in="SourceGraphic" in2="BackgroundImageFix" result="shape"/>
<feGaussianBlur stdDeviation="9.61558" result="effect1_foregroundBlur_11_392"/>
</filter>
<filter id="filter16_f_11_392" x="382.121" y="191.892" width="266.93" height="271.594" filterUnits="userSpaceOnUse" color-interpolation-filters="sRGB">
<feFlood flood-opacity="0" result="BackgroundImageFix"/>
<feBlend mode="normal" in="SourceGraphic" in2="BackgroundImageFix" result="shape"/>
<feGaussianBlur stdDeviation="17.5949" result="effect1_foregroundBlur_11_392"/>
</filter>
<linearGradient id="paint0_linear_11_392" x1="386.153" y1="604.444" x2="386.153" y2="700.414" gradientUnits="userSpaceOnUse">
<stop/>
<stop offset="1" stop-color="#151433" stop-opacity="0.87"/>
<stop offset="1" stop-color="#251F27" stop-opacity="0.87"/>
</linearGradient>
<radialGradient id="paint1_radial_11_392" cx="0" cy="0" r="1" gradientUnits="userSpaceOnUse" gradientTransform="translate(259.916 -2.38231) rotate(70.119) scale(216.736 186.562)">
<stop stop-color="#E8F360"/>
<stop offset="0.420971" stop-color="#F7B34E" stop-opacity="0.990923"/>
<stop offset="0.829897" stop-color="#FFA843"/>
<stop offset="1" stop-color="#89F235"/>
</radialGradient>
<linearGradient id="paint2_linear_11_392" x1="313.52" y1="36.9326" x2="313.52" y2="116.178" gradientUnits="userSpaceOnUse">
<stop stop-color="#9E4722"/>
<stop offset="1" stop-color="#BB391C" stop-opacity="0.87"/>
</linearGradient>
<linearGradient id="paint3_linear_11_392" x1="349.045" y1="21.5073" x2="349.045" y2="195.748" gradientUnits="userSpaceOnUse">
<stop stop-color="#9E4722"/>
<stop offset="1" stop-color="#BB391C" stop-opacity="0.87"/>
</linearGradient>
<radialGradient id="paint4_radial_11_392" cx="0" cy="0" r="1" gradientUnits="userSpaceOnUse" gradientTransform="translate(386.04 238.267) rotate(64.8675) scale(445.241 531.135)">
<stop stop-color="#F1A42F"/>
<stop offset="0.420971" stop-color="#FCDB69" stop-opacity="0.990923"/>
<stop offset="0.829897" stop-color="#F8B147" stop-opacity="0.77"/>
<stop offset="1" stop-color="#EEAF4F"/>
</radialGradient>
<radialGradient id="paint5_radial_11_392" cx="0" cy="0" r="1" gradientUnits="userSpaceOnUse" gradientTransform="translate(386.226 238.267) rotate(90.8281) scale(417.585 249.974)">
<stop stop-color="#F38B2C"/>
<stop offset="0.420971" stop-color="#FFA681" stop-opacity="0.990923"/>
<stop offset="0.829897" stop-color="#F79A10" stop-opacity="0.77"/>
</radialGradient>
<linearGradient id="paint6_linear_11_392" x1="182.101" y1="229.601" x2="226.463" y2="383.591" gradientUnits="userSpaceOnUse">
<stop stop-color="#FFEB37" stop-opacity="0.71"/>
<stop offset="1" stop-color="#FF7C02" stop-opacity="0.7"/>
</linearGradient>
<linearGradient id="paint7_linear_11_392" x1="214.041" y1="274.016" x2="236.275" y2="354.274" gradientUnits="userSpaceOnUse">
<stop stop-color="white"/>
<stop offset="1" stop-color="#FFFFF8" stop-opacity="0.7"/>
</linearGradient>
<linearGradient id="paint8_linear_11_392" x1="395.419" y1="412.622" x2="395.419" y2="647.97" gradientUnits="userSpaceOnUse">
<stop stop-color="#F8A120"/>
<stop offset="1" stop-color="#A5BB1C" stop-opacity="0.87"/>
</linearGradient>
<linearGradient id="paint9_linear_11_392" x1="259.694" y1="238.175" x2="259.694" y2="413.838" gradientUnits="userSpaceOnUse">
<stop stop-color="#27613E"/>
<stop offset="1" stop-color="#1B213F"/>
</linearGradient>
<linearGradient id="paint10_linear_11_392" x1="291.902" y1="253.735" x2="267.405" y2="424.984" gradientUnits="userSpaceOnUse">
<stop stop-color="#AF6E31"/>
<stop offset="0.558371" stop-color="#E45314" stop-opacity="0.990923"/>
<stop offset="1" stop-color="#FFC700"/>
</linearGradient>
<linearGradient id="paint11_linear_11_392" x1="87.8312" y1="0" x2="87.8312" y2="175.662" gradientUnits="userSpaceOnUse">
<stop stop-color="#27613E"/>
<stop offset="1" stop-color="#1B213F"/>
</linearGradient>
<linearGradient id="paint12_linear_11_392" x1="559.005" y1="253.734" x2="534.508" y2="424.983" gradientUnits="userSpaceOnUse">
<stop stop-color="#9C500A"/>
<stop offset="0.558371" stop-color="#E45314" stop-opacity="0.990923"/>
<stop offset="1" stop-color="#FFC700"/>
</linearGradient>
<linearGradient id="paint13_linear_11_392" x1="390.948" y1="378.277" x2="398.551" y2="428.985" gradientUnits="userSpaceOnUse">
<stop stop-color="#9C500A"/>
<stop offset="1" stop-color="#FF2E00"/>
</linearGradient>
<linearGradient id="paint14_linear_11_392" x1="385.996" y1="355.156" x2="385.996" y2="410.56" gradientUnits="userSpaceOnUse">
<stop stop-color="#1D2B3F"/>
<stop offset="1" stop-color="#1A4A33"/>
</linearGradient>
<linearGradient id="paint15_linear_11_392" x1="527.155" y1="563.103" x2="385.767" y2="604.704" gradientUnits="userSpaceOnUse">
<stop stop-color="#27613E"/>
<stop offset="1" stop-color="#1B213F"/>
</linearGradient>
<linearGradient id="paint16_linear_11_392" x1="513.867" y1="451.63" x2="500.21" y2="619.633" gradientUnits="userSpaceOnUse">
<stop stop-color="#225321"/>
<stop offset="0.558371" stop-color="#E46C14" stop-opacity="0.990923"/>
<stop offset="1" stop-color="#FFC700"/>
</linearGradient>
<linearGradient id="paint17_linear_11_392" x1="513.867" y1="451.63" x2="500.21" y2="619.633" gradientUnits="userSpaceOnUse">
<stop stop-color="#225321"/>
<stop offset="0.558371" stop-color="#E46C14" stop-opacity="0.990923"/>
<stop offset="1" stop-color="#FFC700"/>
</linearGradient>
<linearGradient id="paint18_linear_11_392" x1="513.867" y1="451.63" x2="500.21" y2="619.633" gradientUnits="userSpaceOnUse">
<stop stop-color="#225321"/>
<stop offset="0.558371" stop-color="#E46C14" stop-opacity="0.990923"/>
<stop offset="1" stop-color="#FFC700"/>
</linearGradient>
</defs>
</svg>
